<svg width="780" height="260" viewBox="0 0 780 260" fill="none" xmlns="http://www.w3.org/2000/svg">
<path d="M203.771 108.352H223.141V191.942H203.771V108.352ZM236.525 108.352H249.915L326.615 168.542V108.352H345.985V191.942H332.595L255.895 131.882V191.942H236.525V108.352ZM403.513 124.212C388.953 124.212 377.643 135.522 377.643 150.212C377.643 164.902 388.953 176.212 403.513 176.212H435.363C449.923 176.212 461.233 164.902 461.233 150.212C461.233 135.522 449.923 124.212 435.363 124.212H403.513ZM400.003 108.352H438.873C462.533 108.352 480.733 126.552 480.733 150.212C480.733 173.742 462.533 191.942 438.873 191.942H400.003C376.343 191.942 358.273 173.742 358.273 150.212C358.273 126.552 376.343 108.352 400.003 108.352ZM478.498 108.352H500.728L545.838 169.712L591.078 108.352H613.178L549.998 191.942H541.548L478.498 108.352ZM626.525 108.352H645.895V191.942H626.525V108.352ZM658.239 108.352H680.859L715.049 140.592L749.239 108.352H771.989L727.269 150.212L771.989 191.942H749.239L715.049 159.832L680.859 191.942H658.239L702.959 150.212L658.239 108.352Z" fill="#FEC11B"/>
<path d="M349.512 234L353.992 211.6H360.328L355.848 234H349.512ZM360.356 234L364.836 211.6H370.052L379.108 226.576L376.932 226.512L379.908 211.6H386.116L381.636 234H376.42L367.396 219.024L369.54 219.088L366.564 234H360.356ZM386.137 234L390.617 211.6H395.833L404.889 226.576L402.713 226.512L405.689 211.6H411.897L407.417 234H402.201L393.177 219.024L395.321 219.088L392.345 234H386.137ZM424.014 234.448C421.71 234.448 419.726 234.032 418.062 233.2C416.398 232.347 415.118 231.184 414.222 229.712C413.326 228.24 412.878 226.533 412.878 224.592C412.878 222.629 413.22 220.837 413.902 219.216C414.585 217.573 415.545 216.155 416.782 214.96C418.02 213.744 419.492 212.805 421.198 212.144C422.926 211.483 424.814 211.152 426.862 211.152C429.166 211.152 431.15 211.579 432.814 212.432C434.478 213.264 435.758 214.416 436.654 215.888C437.55 217.36 437.998 219.067 437.998 221.008C437.998 222.971 437.657 224.773 436.974 226.416C436.292 228.037 435.332 229.456 434.094 230.672C432.857 231.867 431.374 232.795 429.646 233.456C427.94 234.117 426.062 234.448 424.014 234.448ZM424.558 229.2C425.668 229.2 426.649 228.997 427.502 228.592C428.377 228.187 429.113 227.621 429.71 226.896C430.329 226.149 430.798 225.307 431.118 224.368C431.438 223.429 431.598 222.437 431.598 221.392C431.598 220.389 431.385 219.515 430.958 218.768C430.553 218.021 429.956 217.445 429.166 217.04C428.398 216.613 427.449 216.4 426.318 216.4C425.23 216.4 424.249 216.603 423.374 217.008C422.5 217.413 421.753 217.989 421.134 218.736C420.537 219.461 420.078 220.293 419.758 221.232C419.438 222.171 419.278 223.163 419.278 224.208C419.278 225.189 419.481 226.064 419.886 226.832C420.313 227.579 420.91 228.165 421.678 228.592C422.468 228.997 423.428 229.2 424.558 229.2ZM445.111 234L440.023 211.6H446.519L450.807 231.024H446.679L458.871 211.6H465.399L451.351 234H445.111ZM458.793 234L473.161 211.6H479.401L484.809 234H478.505L474.505 214.608H477.001L465.481 234H458.793ZM465.065 229.648L467.625 224.976H478.569L479.273 229.648H465.065ZM490.248 234L493.736 216.624H486.856L487.88 211.6H507.944L506.92 216.624H500.072L496.584 234H490.248ZM514.369 220.272H524.769L523.841 225.008H513.441L514.369 220.272ZM513.057 229.104H524.801L523.777 234H505.825L510.305 211.6H527.841L526.849 216.496H515.553L513.057 229.104ZM542.301 234L544.189 224.496L544.893 228.368L538.205 211.6H544.573L549.373 223.76L545.469 223.792L555.261 211.6H561.693L548.381 228.368L550.525 224.496L548.637 234H542.301ZM569.952 234.448C567.648 234.448 565.664 234.032 564 233.2C562.336 232.347 561.056 231.184 560.16 229.712C559.264 228.24 558.816 226.533 558.816 224.592C558.816 222.629 559.157 220.837 559.84 219.216C560.522 217.573 561.482 216.155 562.72 214.96C563.957 213.744 565.429 212.805 567.136 212.144C568.864 211.483 570.752 211.152 572.8 211.152C575.104 211.152 577.088 211.579 578.752 212.432C580.416 213.264 581.696 214.416 582.592 215.888C583.488 217.36 583.936 219.067 583.936 221.008C583.936 222.971 583.594 224.773 582.912 226.416C582.229 228.037 581.269 229.456 580.032 230.672C578.794 231.867 577.312 232.795 575.584 233.456C573.877 234.117 572 234.448 569.952 234.448ZM570.496 229.2C571.605 229.2 572.586 228.997 573.44 228.592C574.314 228.187 575.05 227.621 575.648 226.896C576.266 226.149 576.736 225.307 577.056 224.368C577.376 223.429 577.536 222.437 577.536 221.392C577.536 220.389 577.322 219.515 576.896 218.768C576.49 218.021 575.893 217.445 575.104 217.04C574.336 216.613 573.386 216.4 572.256 216.4C571.168 216.4 570.186 216.603 569.312 217.008C568.437 217.413 567.69 217.989 567.072 218.736C566.474 219.461 566.016 220.293 565.696 221.232C565.376 222.171 565.216 223.163 565.216 224.208C565.216 225.189 565.418 226.064 565.824 226.832C566.25 227.579 566.848 228.165 567.616 228.592C568.405 228.997 569.365 229.2 570.496 229.2ZM595.83 234.448C593.59 234.448 591.713 234.021 590.198 233.168C588.705 232.293 587.649 231.077 587.03 229.52C586.412 227.941 586.305 226.107 586.71 224.016L589.206 211.6H595.542L593.078 223.92C592.908 224.816 592.854 225.595 592.918 226.256C592.982 226.917 593.164 227.472 593.462 227.92C593.782 228.368 594.198 228.699 594.71 228.912C595.244 229.104 595.873 229.2 596.598 229.2C597.473 229.2 598.23 229.029 598.87 228.688C599.532 228.325 600.076 227.76 600.502 226.992C600.95 226.203 601.292 225.179 601.526 223.92L603.99 211.6H610.23L607.702 224.304C607.041 227.632 605.718 230.16 603.734 231.888C601.75 233.595 599.116 234.448 595.83 234.448ZM610.075 234L614.555 211.6H624.123C627.003 211.6 629.221 212.229 630.779 213.488C632.357 214.747 633.147 216.496 633.147 218.736C633.147 220.613 632.688 222.256 631.771 223.664C630.875 225.051 629.595 226.128 627.931 226.896C626.267 227.664 624.304 228.048 622.043 228.048H614.779L618.139 225.328L616.411 234H610.075ZM624.123 234L619.547 225.84H626.107L630.747 234H624.123ZM617.979 226.064L615.771 223.152H622.331C623.739 223.152 624.827 222.821 625.595 222.16C626.363 221.499 626.747 220.56 626.747 219.344C626.747 218.405 626.437 217.712 625.819 217.264C625.2 216.816 624.336 216.592 623.227 216.592H617.115L620.507 213.584L617.979 226.064ZM651.459 221.424H661.795L660.803 226.32H650.499L651.459 221.424ZM649.411 234H643.075L647.555 211.6H665.091L664.099 216.496H652.899L649.411 234ZM674.518 234.448C672.278 234.448 670.4 234.021 668.886 233.168C667.392 232.293 666.336 231.077 665.718 229.52C665.099 227.941 664.992 226.107 665.398 224.016L667.894 211.6H674.23L671.766 223.92C671.595 224.816 671.542 225.595 671.606 226.256C671.67 226.917 671.851 227.472 672.15 227.92C672.47 228.368 672.886 228.699 673.398 228.912C673.931 229.104 674.56 229.2 675.286 229.2C676.16 229.2 676.918 229.029 677.558 228.688C678.219 228.325 678.763 227.76 679.19 226.992C679.638 226.203 679.979 225.179 680.214 223.92L682.678 211.6H688.918L686.39 224.304C685.728 227.632 684.406 230.16 682.422 231.888C680.438 233.595 677.803 234.448 674.518 234.448ZM693.154 234L696.642 216.624H689.762L690.786 211.6H710.85L709.826 216.624H702.978L699.49 234H693.154ZM719.299 234.448C717.059 234.448 715.182 234.021 713.667 233.168C712.174 232.293 711.118 231.077 710.499 229.52C709.88 227.941 709.774 226.107 710.179 224.016L712.675 211.6H719.011L716.547 223.92C716.376 224.816 716.323 225.595 716.387 226.256C716.451 226.917 716.632 227.472 716.931 227.92C717.251 228.368 717.667 228.699 718.179 228.912C718.712 229.104 719.342 229.2 720.067 229.2C720.942 229.2 721.699 229.029 722.339 228.688C723 228.325 723.544 227.76 723.971 226.992C724.419 226.203 724.76 225.179 724.995 223.92L727.459 211.6H733.699L731.171 224.304C730.51 227.632 729.187 230.16 727.203 231.888C725.219 233.595 722.584 234.448 719.299 234.448ZM733.543 234L738.023 211.6H747.591C750.471 211.6 752.69 212.229 754.247 213.488C755.826 214.747 756.615 216.496 756.615 218.736C756.615 220.613 756.157 222.256 755.239 223.664C754.343 225.051 753.063 226.128 751.399 226.896C749.735 227.664 747.773 228.048 745.511 228.048H738.247L741.607 225.328L739.879 234H733.543ZM747.591 234L743.015 225.84H749.575L754.215 234H747.591ZM741.447 226.064L739.239 223.152H745.799C747.207 223.152 748.295 222.821 749.063 222.16C749.831 221.499 750.215 220.56 750.215 219.344C750.215 218.405 749.906 217.712 749.287 217.264C748.669 216.816 747.805 216.592 746.695 216.592H740.583L743.975 213.584L741.447 226.064ZM765.775 220.272H776.175L775.247 225.008H764.847L765.775 220.272ZM764.463 229.104H776.207L775.183 234H757.231L761.711 211.6H779.247L778.255 216.496H766.959L764.463 229.104Z" fill="#FEC11B"/>
<path d="M84.6758 0.0212923C87.2179 -0.0757165 89.5849 0.144085 91.9965 0.984775C96.2927 2.48157 99.852 5.52076 101.784 9.61195C103.741 13.7868 103.924 18.5619 102.291 22.8702C100.471 27.7741 96.7909 31.1515 92.0713 33.3335C92.1206 39.0913 92.1222 44.8494 92.0776 50.6072C110.229 50.5921 127.083 49.7687 143.297 59.3256C147.525 61.7738 151.423 64.743 154.893 68.1617C167.161 80.2161 172.412 95.2361 172.438 112.119L172.443 157.796L172.446 172.989C172.447 176.62 172.51 180.258 172.272 183.88C170.956 203.988 163.697 222.49 149.158 236.872C131.857 253.983 112.09 259.053 88.2 259.085L87.2354 259.086C82.1638 259.091 77.1393 259.076 72.0829 258.629C53.2996 256.972 36.1142 250.178 22.6923 236.863C9.07195 223.349 1.62887 205.04 0.238917 186.151C-0.0245258 182.571 0.0498126 178.97 0.0504493 175.382L0.0520378 160.202L0.0461502 118.217C0.0429666 113.421 -0.151872 108.526 0.283802 103.749C1.5418 89.9607 7.61499 77.537 17.5071 67.7836C27.2874 58.1403 40.1419 52.4494 53.836 51.055C62.3885 50.1841 71.1871 50.6003 79.7762 50.6056L79.7923 33.2203C78.24 32.6747 76.7942 31.8177 75.5131 30.8001C71.8642 27.9018 69.3586 23.6962 68.8732 19.0705C68.3748 14.3192 69.4927 9.77374 72.57 6.03678C75.6231 2.32938 79.9593 0.507909 84.6758 0.0212923ZM61.115 69.2136C49.5994 69.7563 38.775 72.9914 30.8063 81.6931C20.9281 92.4798 19.0824 106.464 19.8077 120.421C20.496 133.667 25.5351 145.842 35.6521 154.798C49.2472 166.832 67.0492 167.577 84.289 167.603C89.6215 167.609 95.0416 167.788 100.363 167.488C103.785 167.299 107.193 166.919 110.573 166.351C123.976 163.946 135.86 157.996 143.779 146.665C152.209 134.601 154.283 117.283 151.549 103.076C149.448 92.1627 144.004 82.5407 134.561 76.2007C129.77 72.9837 124.407 71.0721 118.723 70.0763C112.521 68.9898 106.095 69.1697 99.8201 69.1738H80.3743L67.6135 69.1717C65.4824 69.1714 63.23 69.0208 61.115 69.2136ZM144.903 210.073C149.795 200.545 152.407 190.036 152.539 179.354C152.649 174.113 152.375 168.881 152.384 163.645C142.969 175.824 127.411 183.393 112.236 185.404C103.808 186.52 95.2119 186.135 86.7276 186.135C80.5061 186.133 74.1983 186.352 67.9866 186.05C54.1908 185.38 40.9068 181.783 29.8096 173.411C27.263 171.507 24.896 169.379 22.7374 167.054C21.7433 165.986 20.8425 164.749 19.8118 163.732C19.7676 169.79 19.4911 176.744 19.8452 182.728C20.711 197.361 25.7218 211.881 36.3052 222.462C49.4718 235.627 66.2294 239.715 84.4291 239.784C103.332 239.856 121.171 236.743 135.082 223.107C138.98 219.256 142.288 214.865 144.903 210.073Z" fill="#FEC11B"/>
<path d="M115.076 95.084C122.448 94.1101 129.217 99.2336 130.184 106.517C131.15 113.8 125.945 120.473 118.57 121.409C111.221 122.34 104.495 117.222 103.532 109.967C102.569 102.711 107.733 96.054 115.076 95.084Z" fill="#FEC11B"/>
<path d="M53.4182 95.1493C60.7547 94.0761 67.5794 99.091 68.6474 106.34C69.7155 113.59 64.6209 120.318 57.2789 121.354C49.963 122.387 43.181 117.377 42.1169 110.154C41.0526 102.93 46.1078 96.2187 53.4182 95.1493Z" fill="#FEC11B"/>
<path d="M66.3608 138.649C68.4834 138.558 71.9888 141.225 74.2178 141.995C77.9986 143.302 82.1789 144.014 86.1911 143.994C89.7074 143.959 93.1998 143.412 96.5537 142.371C97.8813 141.962 99.2566 141.481 100.511 140.888C102.002 140.184 103.849 138.55 105.579 138.693C106.561 138.775 107.403 139.294 108.005 140.049C108.721 140.943 109.076 142.173 108.889 143.303C108.612 144.956 107.287 146.011 106.001 146.94C104.201 148.289 102.08 149.328 99.9777 150.125C91.0827 153.495 79.6356 153.408 70.9134 149.548C68.4127 148.441 64.4496 146.614 63.4811 143.849C63.1085 142.784 63.2479 141.641 63.7659 140.648C64.3358 139.553 65.214 139.028 66.3608 138.649Z" fill="#FEC11B"/>
</svg>
